<?xml version="1.0" encoding="utf-8"?>
<!-- Generator: Adobe Illustrator 21.0.2, SVG Export Plug-In . SVG Version: 6.00 Build 0)  -->
<svg version="1.1" id="レイヤー_1" xmlns="http://www.w3.org/2000/svg" xmlns:xlink="http://www.w3.org/1999/xlink" x="0px"
	 y="0px" viewBox="0 0 128 116" style="enable-background:new 0 0 128 116;" xml:space="preserve">
<style type="text/css">
	.st0{fill:#FF9900;}
</style>
<g>
	<g>
		<path class="st0" d="M48.5,55.4c-1.4,10.4,7.4,19.3,17.8,18c7.1-0.9,12.8-6.6,13.7-13.6c1.4-10.4-7.3-19.2-17.7-17.9
			C55.2,42.7,49.5,48.4,48.5,55.4z"/>
		<path class="st0" d="M126.1,111.6V33.3c0-17.3-14.1-31.4-31.4-31.4H33.4C16.1,1.9,2,16.1,2,33.3v35.5c0,17.3,14.1,31.4,31.4,31.4
			h3.2C25.4,89.7,20.5,76,20.5,58c0-22.3,16.9-46.1,48.2-44.1C90.9,15.3,108,34,108.2,56.3c0.1,17.4-4.7,26.3-14.3,26.3
			c-6.4,0-9.8-4-11.7-9c-4.9,5.6-12.4,8.9-20.5,8c-11-1.2-19.9-9.9-21.2-20.9c-1.9-15.4,10.9-28.4,26.2-27
			c11.9,1.1,21.6,12.4,21.7,24.4c0.1,16.4,4.2,16.3,5.6,16.3c5.4,0,6.2-11,6.2-17.6c0-19.3-15.7-35-35-35
			c-23.6,0-36.4,18.6-36.4,36.1c0,17.6,4.5,31.6,21.3,42.3h58.4l14.2,12.1C124.2,113.8,126.1,113.1,126.1,111.6z"/>
	</g>
</g>
</svg>
